<svg width="512" height="512" xmlns="http://www.w3.org/2000/svg">

 <g>
  <title>background</title>
  <rect fill="none" id="canvas_background" height="402" width="582" y="-1" x="-1"/>
 </g>
 <g>
  <title>Layer 1</title>
  <path fill="#c43346" id="svg_2" fill-rule="evenodd" clip-rule="evenodd" d="m300.567,214.277c7.015,3.996 13.435,8.904 19.103,14.573c9.244,9.253 16.487,20.503 21.014,33.058l90.756,0l0,-53.822l-130.873,0l0,6.191zm-89.134,-6.191l-130.873,0l0,53.822l90.756,0c3.625,-10.035 8.97,-19.244 15.68,-27.237c6.844,-8.144 15.119,-15.073 24.437,-20.394l0,-6.191zm-6.367,-62.074l-62.335,-14.291l-4.331,18.896l62.346,14.291l4.32,-18.896zm48.088,-25.26l106.383,0l0,-5.191l-106.383,0l0,5.191zm37.337,111.726c2.66,1.587 5.776,-2.302 2.759,-4.561c-1.598,-0.956 -3.345,-1.847 -5.019,-2.649c-3.661,-1.478 -5.17,3.67 -2.292,4.822c1.555,0.76 3.053,1.519 4.552,2.388zm22.489,20.699c2.074,2.759 6.268,0.087 4.387,-3.041c-0.944,-1.39 -2.204,-3.171 -3.313,-4.431c-1.563,-2.085 -5.254,-0.651 -4.679,2.258c0.088,0.436 0.271,0.762 0.53,1.108c1.023,1.391 2.089,2.672 3.075,4.106zm11.36,28.365c0.748,3.714 5.918,2.367 5.269,-0.825c-0.218,-1.78 -0.653,-3.692 -1.067,-5.43c-0.063,-0.305 -0.238,-0.717 -0.41,-0.934c-1.737,-2.303 -5.366,-0.782 -4.78,2.15c0.392,1.608 0.781,3.432 0.988,5.039zm-1.986,30.538c-1.175,2.91 3.745,4.952 4.994,1.846c0.643,-1.76 1.064,-3.889 1.499,-5.711c0.706,-3.541 -4.552,-4.475 -5.212,-1.108c-0.393,1.671 -0.793,3.301 -1.281,4.973zm-14.989,26.629c-2.085,2.084 0.719,6.059 3.825,3.735c1.28,-1.348 2.562,-2.933 3.702,-4.388c2.162,-2.889 -2.172,-6.016 -4.225,-3.279c-1.042,1.346 -2.151,2.671 -3.302,3.932zm-25.009,17.613c-3.085,1.238 -1.25,6.256 2.053,4.93c1.716,-0.694 3.365,-1.477 5.025,-2.302c2.924,-1.151 1.021,-6.146 -2.127,-4.886c-1.673,0.739 -3.245,1.564 -4.951,2.258zm-30.157,5.061c-3.846,0 -3.464,5.322 -0.26,5.322c1.846,0.086 3.646,0.131 5.503,0.107c3.442,0 3.467,-5.342 -0.084,-5.342c-1.737,0.044 -3.421,-0.022 -5.159,-0.087zm-29.388,-8.427c-2.864,-1.738 -5.646,2.823 -2.649,4.626c1.544,0.869 3.432,1.847 5.05,2.541c3.542,1.412 5.191,-3.671 2.204,-4.865c-1.573,-0.738 -3.072,-1.499 -4.605,-2.302zm-22.847,-20.308c-2.193,-2.932 -6.363,0.412 -4.345,3.105c1.088,1.521 2.239,2.955 3.411,4.389c2.867,2.865 6.191,-1.348 4.061,-3.455c-1.074,-1.302 -2.152,-2.649 -3.127,-4.039zm-11.88,-28.169c-0.709,-3.584 -5.91,-2.391 -5.247,0.934c0.271,1.802 0.727,3.648 1.162,5.408c0.618,3.105 5.931,2.476 5.169,-1.325c-0.414,-1.608 -0.824,-3.389 -1.084,-5.017zm1.453,-30.561c0.783,-3.887 -4.538,-4.408 -5.145,-1.391c-0.481,1.761 -0.804,3.715 -1.284,5.388c-0.685,3.433 4.562,4.452 5.247,0.999c0.336,-1.693 0.736,-3.346 1.182,-4.996zm14.508,-26.909c2.271,-2.259 -1.52,-6.017 -3.78,-3.758c-1.292,1.325 -2.604,3.084 -3.734,4.562c-2.095,2.801 2.172,6.016 4.278,3.191c1.053,-1.367 2.11,-2.67 3.236,-3.995zm24.686,-18.028c3.074,-1.238 1.313,-6.278 -2.141,-4.909c-1.67,0.738 -3.366,1.521 -4.973,2.389c-3.355,1.998 -0.217,6.343 2.478,4.736c1.499,-0.804 3.081,-1.543 4.636,-2.216zm27.378,-10.991l-2.66,0.044c-3.292,0 -3.552,5.343 0.204,5.343c2.565,-0.108 5.039,-0.021 7.604,0.131c3.973,0 3.429,-5.32 0.369,-5.32c-1.857,-0.11 -3.65,-0.174 -5.517,-0.198zm-163.961,4.562c0,-1.456 1.193,-2.649 2.671,-2.649c1.467,0 2.67,1.193 2.67,2.649l0,24.825c0,1.478 -1.204,2.672 -2.67,2.672c-1.478,0 -2.671,-1.194 -2.671,-2.672l0,-24.825zm17.474,0c0,-1.456 1.204,-2.649 2.671,-2.649s2.671,1.193 2.671,2.649l0,24.825c0,1.478 -1.204,2.672 -2.671,2.672s-2.671,-1.194 -2.671,-2.672l0,-24.825zm17.474,0c0,-1.456 1.193,-2.649 2.67,-2.649s2.671,1.193 2.671,2.649l0,24.825c0,1.478 -1.193,2.672 -2.671,2.672s-2.67,-1.194 -2.67,-2.672l0,-24.825zm17.481,0c0,-1.456 1.197,-2.649 2.674,-2.649c1.463,0 2.66,1.193 2.66,2.649l0,24.825c0,1.478 -1.197,2.672 -2.66,2.672c-1.478,0 -2.674,-1.194 -2.674,-2.672l0,-24.825zm17.474,0c0,-1.456 1.197,-2.649 2.66,-2.649c1.478,0 2.674,1.193 2.674,2.649l0,24.825c0,1.478 -1.197,2.672 -2.674,2.672c-1.463,0 -2.66,-1.194 -2.66,-2.672l0,-24.825zm177.524,0c0,-1.456 1.196,-2.649 2.671,-2.649c1.478,0 2.674,1.193 2.674,2.649l0,24.825c0,1.478 -1.196,2.672 -2.674,2.672c-1.475,0 -2.671,-1.194 -2.671,-2.672l0,-24.825zm17.485,0c0,-1.456 1.196,-2.649 2.671,-2.649c1.467,0 2.674,1.193 2.674,2.649l0,24.825c0,1.478 -1.207,2.672 -2.674,2.672c-1.475,0 -2.671,-1.194 -2.671,-2.672l0,-24.825zm17.473,0c0,-1.456 1.193,-2.649 2.66,-2.649c1.478,0 2.671,1.193 2.671,2.649l0,24.825c0,1.478 -1.193,2.672 -2.671,2.672c-1.467,0 -2.66,-1.194 -2.66,-2.672l0,-24.825zm17.475,0c0,-1.456 1.192,-2.649 2.67,-2.649s2.671,1.193 2.671,2.649l0,24.825c0,1.478 -1.193,2.672 -2.671,2.672s-2.67,-1.194 -2.67,-2.672l0,-24.825zm17.483,0c0,-1.456 1.193,-2.649 2.671,-2.649c1.467,0 2.671,1.193 2.671,2.649l0,24.825c0,1.478 -1.204,2.672 -2.671,2.672c-1.478,0 -2.671,-1.194 -2.671,-2.672l0,-24.825zm-140.762,-84.923c0,-1.455 1.193,-2.65 2.671,-2.65c1.464,0 2.671,1.195 2.671,2.65l0,24.825c0,1.478 -1.207,2.672 -2.671,2.672c-1.478,0 -2.671,-1.194 -2.671,-2.672l0,-24.825zm17.47,0c0,-1.455 1.196,-2.65 2.674,-2.65c1.464,0 2.66,1.195 2.66,2.65l0,24.825c0,1.478 -1.196,2.672 -2.66,2.672c-1.478,0 -2.674,-1.194 -2.674,-2.672l0,-24.825zm17.474,0c0,-1.455 1.196,-2.65 2.671,-2.65c1.478,0 2.674,1.195 2.674,2.65l0,24.825c0,1.478 -1.196,2.672 -2.674,2.672c-1.475,0 -2.671,-1.194 -2.671,-2.672l0,-24.825zm17.484,0c0,-1.455 1.196,-2.65 2.66,-2.65c1.478,0 2.675,1.195 2.675,2.65l0,24.825c0,1.478 -1.197,2.672 -2.675,2.672c-1.464,0 -2.66,-1.194 -2.66,-2.672l0,-24.825zm17.474,0c0,-1.455 1.193,-2.65 2.66,-2.65c1.479,0 2.671,1.195 2.671,2.65l0,24.825c0,1.478 -1.192,2.672 -2.671,2.672c-1.467,0 -2.66,-1.194 -2.66,-2.672l0,-24.825zm-29.613,43.199l0,17.398l122.422,0l0,4.517l-130.873,0l0,-4.517l3.105,0l0,-17.398l-50.519,0l0,-6.211l106.383,0l0,6.211l-50.518,0zm-145.023,-13.509l0,-0.174l-27.918,-6.407l1.127,-4.93l62.346,14.292l-1.13,4.93l-29.115,-6.667l-0.182,29.864l42.31,0l0,4.517l-130.873,0l0,-4.517l83.242,0l0.193,-30.908zm236.484,206.271c1.043,1.042 1.043,2.736 0,3.779c-1.041,1.042 -2.736,1.042 -3.779,0l-28.107,-28.105l-0.021,25.129c0,1.521 -1.182,2.736 -2.649,2.736c-1.464,0 -2.66,-1.215 -2.66,-2.736l0.021,-24.694l-27.658,27.671c-1.042,1.042 -2.736,1.042 -3.779,0c-1.042,-1.043 -1.042,-2.737 0,-3.779l31.449,-31.45l0.045,-70.372l-19.723,0c-0.369,-1.542 -0.759,-3.041 -1.193,-4.539l89.018,0l0,4.539l-62.781,0l-0.053,69.959l31.87,31.862zm81.207,0c1.042,1.042 1.042,2.736 0,3.779c-1.042,1.042 -2.734,1.042 -3.776,0l-28.062,-28.063l0,26.391c0,1.475 -1.197,2.67 -2.675,2.67c-1.463,0 -2.66,-1.195 -2.66,-2.67l0,-25.999l-27.68,27.671c-1.042,1.042 -2.737,1.042 -3.779,0c-1.032,-1.043 -1.032,-2.737 0,-3.779l31.459,-31.45l0,-188.982c-10.153,-0.174 -19.253,-1.412 -25.942,-3.301c-6.299,-1.781 -10.209,-3.866 -10.209,-5.756c0,-1.911 3.91,-3.975 10.209,-5.756c6.689,-1.89 15.789,-3.128 25.942,-3.323l0,-28.821c0,-1.456 1.197,-2.672 2.66,-2.672c1.478,0 2.675,1.216 2.675,2.672l0,28.821c10.163,0.195 19.264,1.434 25.952,3.323c6.3,1.781 10.199,3.845 10.199,5.756c0,1.89 -3.899,3.975 -10.199,5.756c-6.688,1.889 -15.789,3.127 -25.952,3.301l0,188.59l31.838,31.842zm-301.379,0c1.042,1.042 1.042,2.736 0,3.779c-1.042,1.042 -2.737,1.042 -3.78,0l-27.865,-27.867l0,23.132c0,1.542 -1.193,2.802 -2.671,2.802c-1.467,0 -2.671,-1.26 -2.671,-2.802l0,-23.132l-27.869,27.867c-1.042,1.042 -2.734,1.042 -3.78,0c-1.028,-1.043 -1.028,-2.737 0,-3.779l31.648,-31.646l0,-70.177l-62.759,0l0,-4.539l65.364,0l0.067,0l0.074,0l23.514,0c-0.435,1.521 -0.804,2.997 -1.186,4.539l-19.73,0l0,70.177l31.644,31.646zm-82.056,0c1.042,1.042 1.042,2.736 0,3.779c-1.042,1.042 -2.737,1.042 -3.78,0l-27.29,-27.303l-0.031,24.804c0,1.478 -1.197,2.673 -2.664,2.673c-1.463,0 -2.66,-1.195 -2.66,-2.673l0.046,-25.976l-28.476,28.475c-1.042,1.042 -2.737,1.042 -3.78,0c-1.032,-1.043 -1.032,-2.737 0,-3.779l32.266,-32.254l0.271,-174.039l-0.021,11.338c-10.143,-0.174 -19.243,-1.41 -25.932,-3.301c-6.3,-1.781 -10.199,-3.845 -10.199,-5.756c0,-1.912 3.899,-3.975 10.199,-5.756c7.275,-2.063 17.386,-3.345 28.613,-3.345c11.23,0 21.341,1.282 28.616,3.345c6.3,1.781 10.199,3.844 10.199,5.756c0,1.911 -3.899,3.975 -10.199,5.756c-6.689,1.891 -15.813,3.127 -25.977,3.301l-0.26,163.896l31.059,31.059zm224.841,-29.582l0,36.25c0,1.477 -1.193,2.671 -2.672,2.671c-1.477,0 -2.67,-1.194 -2.67,-2.671l0,-29.995c-0.611,0.651 -1.219,1.303 -1.86,1.933c-15.302,15.291 -36.433,24.761 -59.781,24.761c-23.338,0 -44.483,-9.47 -59.774,-24.761c-1.105,-1.107 -2.183,-2.258 -3.225,-3.409l0,31.472c0,1.477 -1.193,2.671 -2.671,2.671c-1.467,0 -2.66,-1.194 -2.66,-2.671l0,-38.075c-1.011,-1.368 -1.965,-2.779 -2.888,-4.213l0,0l-0.046,-0.044c-8.405,-13.14 -13.269,-28.777 -13.269,-45.523c0,-23.349 9.468,-44.482 24.759,-59.771c15.291,-15.291 36.436,-24.762 59.774,-24.762c23.348,0 44.479,9.471 59.781,24.762c9.114,9.1 16.151,20.264 20.362,32.752l0,0.021l0.01,0.022c2.857,8.47 4.401,17.549 4.401,26.976c0,19.414 -6.559,37.313 -17.571,51.604zm-216.305,55.754c-1.478,0 -2.671,-1.217 -2.671,-2.672c0,-1.477 1.193,-2.672 2.671,-2.672l214.967,0c1.478,0 2.674,1.195 2.674,2.672c0,1.455 -1.196,2.672 -2.674,2.672l-214.967,0zm125.885,8.709c-1.478,0 -2.671,-1.217 -2.671,-2.671c0,-1.478 1.193,-2.672 2.671,-2.672l148.758,0c1.467,0 2.66,1.194 2.66,2.672c0,1.454 -1.193,2.671 -2.66,2.671l-148.758,0zm163.982,0c-1.475,0 -2.672,-1.217 -2.672,-2.671c0,-1.478 1.197,-2.672 2.672,-2.672l18.593,0c1.478,0 2.671,1.194 2.671,2.672c0,1.454 -1.193,2.671 -2.671,2.671l-18.593,0zm-298.34,-0.283c-1.463,0 -2.67,-1.194 -2.67,-2.672c0,-1.454 1.207,-2.649 2.67,-2.649l70.492,0c1.467,0 2.67,1.195 2.67,2.649c0,1.478 -1.204,2.672 -2.67,2.672l-70.492,0zm261.223,-282.092l-106.383,0l0,43.178l106.383,0l0,-43.178z"/>
 </g>
</svg>